<svg width="74" height="80" viewBox="0 0 74 80" fill="none" xmlns="http://www.w3.org/2000/svg">
<g filter="url(#filter0_d)">
<path d="M15 17.1054C15 13.2394 18.134 10.1053 22 10.1053H51.64C55.506 10.1053 58.64 13.2394 58.64 17.1053V48.7368C58.64 52.6028 55.506 55.7368 51.64 55.7368H36.1236C34.7639 55.7368 33.477 56.3509 32.6217 57.4079L32.2462 57.8719C30.5172 60.0085 27.2106 59.8505 25.6932 57.5587V57.5587C24.94 56.421 23.6664 55.7368 22.3019 55.7368H21.1715C17.7631 55.7368 15 52.9738 15 49.5653V17.1054Z" fill="white"/>
</g>
<g clip-path="url(#clip0)">
<path d="M47.2669 27.8256C45.4927 24.7336 41.9481 25.3177 40.2018 27.4004C38.2467 28.2508 36.1821 28.6251 34.062 28.1217L34.2294 27.8655L26.9617 19.7335L25.844 23.0303L25.9859 23.1902L25.9656 23.2104L31.214 29.0972C30.7581 30.1736 31.0437 31.6354 32.4397 32.0651C34.869 32.8142 37.3138 32.7153 39.6558 32.056C39.7098 32.1675 39.7634 32.279 39.8265 32.391C40.7489 33.9975 41.334 35.603 41.7016 37.2589C40.6992 36.3102 39.7088 35.3498 38.745 34.3586C37.5145 33.0921 35.6857 33.4941 34.7624 34.8953C33.1107 37.3997 31.1088 39.6791 29.8146 42.422C28.2483 42.422 26.6824 42.422 25.1166 42.422C21.846 42.422 21.846 47.7258 25.1166 47.7258C32.2608 47.7258 39.4059 47.7258 46.5506 47.7258C46.6036 47.7268 46.6567 47.7263 46.7097 47.7258C46.8395 47.7258 46.9683 47.7258 47.0985 47.7258C47.5713 47.7258 47.9746 47.6128 48.3113 47.4221C49.77 46.8612 50.9166 45.5241 50.9041 43.4C50.8703 37.8229 50.045 32.6664 47.2669 27.8256ZM33.5415 27.9795C33.5343 27.9775 33.5266 27.9764 33.5198 27.9739C33.2651 27.8957 33.0258 27.869 32.8025 27.8816L27.3949 21.8172L26.4967 22.6923L27.161 20.7327L33.582 27.9174L33.5415 27.9795ZM35.7243 42.4225C36.2202 41.673 36.7446 40.9431 37.2742 40.2162C38.048 40.9648 38.8348 41.6982 39.6326 42.4225C38.3297 42.4225 37.0272 42.4225 35.7243 42.4225Z" fill="#4C323C"/>
<path d="M40.7568 25.4671C42.7179 25.4671 44.3076 23.8047 44.3076 21.7542C44.3076 19.7036 42.7179 18.0413 40.7568 18.0413C38.7957 18.0413 37.2059 19.7036 37.2059 21.7542C37.2059 23.8047 38.7957 25.4671 40.7568 25.4671Z" fill="#4C323C"/>
</g>
<defs>
<filter id="filter0_d" x="0" y="0.105347" width="73.64" height="79.2753" filterUnits="userSpaceOnUse" color-interpolation-filters="sRGB">
<feFlood flood-opacity="0" result="BackgroundImageFix"/>
<feColorMatrix in="SourceAlpha" type="matrix" values="0 0 0 0 0 0 0 0 0 0 0 0 0 0 0 0 0 0 127 0"/>
<feOffset dy="5"/>
<feGaussianBlur stdDeviation="7.5"/>
<feColorMatrix type="matrix" values="0 0 0 0 0 0 0 0 0 0 0 0 0 0 0 0 0 0 0.33 0"/>
<feBlend mode="normal" in2="BackgroundImageFix" result="effect1_dropShadow"/>
<feBlend mode="normal" in="SourceGraphic" in2="effect1_dropShadow" result="shape"/>
</filter>
<clipPath id="clip0">
<rect width="28.4609" height="29.7597" fill="white" transform="translate(22.5896 18.0413)"/>
</clipPath>
</defs>
</svg>
